<svg width="28" height="49" viewBox="0 0 28 49" fill="none" xmlns="http://www.w3.org/2000/svg">
<path d="M1 0.5H0.5V1V25V25.5H1H5H5.5V25V16.7155H9.3152L13.8011 25.233L13.9417 25.5H14.2435H19H19.8362L19.4405 24.7634L14.5851 15.7245C15.9142 15.0667 16.9348 14.1372 17.6256 12.934L17.6266 12.9322C18.3177 11.7164 18.653 10.2908 18.653 8.67403C18.653 7.06711 18.3173 5.63336 17.6296 4.38812C16.9375 3.13482 15.9161 2.17081 14.5826 1.49831C13.2479 0.825168 11.6571 0.5 9.82898 0.5H1ZM9.19369 12.1022H5.5V5.11326H9.1774C10.1864 5.11326 10.9789 5.26212 11.5777 5.53292L11.5776 5.53293L11.5804 5.53414C12.1825 5.80216 12.6038 6.19203 12.8725 6.70253L12.8725 6.70254L12.8743 6.70583C13.1531 7.22595 13.3091 7.8757 13.3199 8.67403C13.3091 9.47347 13.1527 10.1011 12.88 10.5822C12.614 11.0514 12.1969 11.4259 11.5971 11.6977C10.9967 11.9588 10.2029 12.1022 9.19369 12.1022Z" fill="#5C6BC0" stroke="#5C6BC0"/>
<path d="M27 25.5H27.5V25V1V0.5H27H23.0551H22.5551L22.5551 1L22.5551 25L22.5551 25.5H23.0551H27Z" fill="#5C6BC0" stroke="#5C6BC0"/>
<path d="M5.75081 23.7798L5.61357 23.5H5.30191H1H0.5V24V48V48.5H1H5.30191H5.80191V48V33.4417L11.9361 48.11L12.0646 48.4171H12.3974H15.6025H15.9354L16.0638 48.11L22.2152 33.3938V48V48.5H22.7152H27H27.5V48V24V23.5H27H22.7152H22.4038L22.2665 23.7795L14.0003 40.5987L5.75081 23.7798Z" fill="#5C6BC0" stroke="#5C6BC0"/>
</svg>
